<svg xmlns="http://www.w3.org/2000/svg" viewBox="0 0 24 24" fill="currentColor">
  <path d="M24 10.304c0-5.369-5.383-9.738-12-9.738-6.616 0-12 4.369-12 9.738 0 4.814 4.269 8.846 10.036 9.608.391.084.922.258 1.057.592.121.303.079.778.039 1.085l-.171 1.027c-.052.303-.242 1.186 1.039.647 1.281-.54 6.911-4.069 9.428-6.967 1.579-1.705 2.571-3.606 2.571-5.992zm-17.288 4.265h-1.311c-.347 0-.63-.283-.63-.63v-4.526c0-.347.283-.63.63-.63h1.311c.347 0 .63.283.63.63v4.526c0 .347-.282.63-.63.63zm3.111 0h-1.311c-.347 0-.63-.283-.63-.63v-4.526c0-.347.283-.63.63-.63h1.311c.347 0 .63.283.63.63v4.526c0 .347-.282.63-.63.63zm5.794 0h-1.311c-.347 0-.63-.283-.63-.63v-4.526c0-.347.283-.63.63-.63h1.311c.347 0 .63.283.63.63v4.526c0 .347-.283.63-.63.63zm3.111 0h-1.311c-.347 0-.63-.283-.63-.63v-4.526c0-.347.283-.63.63-.63h1.311c.347 0 .63.283.63.63v4.526c0 .347-.282.63-.63.63z" opacity="0" /><path d="M18.106 8.783h-1.127v4.516h1.127c.22 0 .4-.18.4-.4v-3.716c0-.22-.18-.4-.4-.4zm-5.719 0h-1.127v4.516h1.127c.22 0 .4-.18.4-.4v-3.716c0-.22-.18-.4-.4-.4zm-3.111 0h-1.127v4.516h1.127c.22 0 .4-.18.4-.4v-3.716c0-.22-.18-.4-.4-.4zm-3.111 0H5.038v4.516h1.127c.22 0 .4-.18.4-.4v-3.716c0-.22-.18-.4-.4-.4z" opacity="0"/><path d="M24 10.304c0-5.369-5.383-9.738-12-9.738-6.616 0-12 4.369-12 9.738 0 4.814 4.269 8.846 10.036 9.608.391.084.922.258 1.057.592.121.303.079.778.039 1.085l-.171 1.027c-.052.303-.242 1.186 1.039.647 1.281-.54 6.911-4.069 9.428-6.967 1.579-1.705 2.571-3.606 2.571-5.992zM8.191 13.032c0 .166-.134.3-.3.3H5.405c-.165 0-.3-.134-.3-.3V8.169c0-.166.135-.3.3-.3h.477c.166 0 .3.134.3.3v3.963h1.71c.165 0 .3.134.3.3v.6zm1.902 0c0 .166-.135.3-.3.3h-.477c-.166 0-.3-.134-.3-.3V8.169c0-.166.134-.3.3-.3h.477c.166 0 .3.134.3.3v4.863zm5.406 0c0 .166-.135.3-.3.3h-.477c-.166 0-.3-.134-.3-.3v-3.415l-1.391 3.585c-.012.032-.043.053-.077.053h-.372c-.033 0-.064-.021-.076-.053l-1.391-3.585v3.415c0 .166-.135.3-.3.3h-.478c-.165 0-.3-.134-.3-.3V8.169c0-.166.135-.3.3-.3h.71c.033 0 .064.021.076.053l1.458 3.757 1.458-3.757c.012-.032.043-.053.077-.053h.71c.165 0 .3.134.3.3v4.863zm4.561-.863c0 .166-.134.3-.3.3h-1.711v.863h1.711c.166 0 .3.134.3.3v.6c0 .166-.134.3-.3.3h-2.188c-.165 0-.3-.134-.3-.3V8.169c0-.166.135-.3.3-.3h2.188c.166 0 .3.134.3.3v.6c0 .166-.134.3-.3.3h-1.711v.863h1.711c.166 0 .3.134.3.3v.6z"/></svg>
